<?xml version="1.0" encoding="iso-8859-1"?>
<!-- Generator: Adobe Illustrator 19.0.0, SVG Export Plug-In . SVG Version: 6.00 Build 0)  -->
<svg version="1.1" id="Capa_1" xmlns="http://www.w3.org/2000/svg" xmlns:xlink="http://www.w3.org/1999/xlink" x="0px" y="0px"
	 viewBox="0 0 512 512" style="enable-background:new 0 0 512 512;" xml:space="preserve">
<path style="fill:#FEA832;" d="M437.02,74.98C388.667,26.629,324.38,0,256,0S123.333,26.629,74.98,74.98S0,187.62,0,256
	s26.629,132.667,74.98,181.02S187.62,512,256,512s132.667-26.629,181.02-74.98S512,324.38,512,256S485.371,123.333,437.02,74.98z"/>
<path style="fill:#EA8D1F;" d="M437.02,437.02C485.371,388.667,512,324.38,512,256s-26.629-132.667-74.98-181.02S324.38,0,256,0v512
	C324.38,512,388.667,485.371,437.02,437.02z"/>
<path style="fill:#FEDB41;" d="M256,64C150.131,64,64,150.131,64,256s86.131,192,192,192s192-86.131,192-192S361.869,64,256,64z"/>
<path style="fill:#EEBF00;" d="M448,256c0-105.869-86.131-192-192-192v384C361.869,448,448,361.869,448,256z"/>
<path style="fill:#E27726;" d="M320,222.154c0-23.413-19.048-42.462-42.462-42.462h-6.769v-22.154
	c0-8.157-6.613-14.769-14.769-14.769s-14.769,6.613-14.769,14.769v22.154h-34.462c-8.157,0-14.769,6.613-14.769,14.769V256v61.538
	c0,8.157,6.613,14.769,14.769,14.769h34.462v22.154c0,8.157,6.613,14.769,14.769,14.769s14.769-6.613,14.769-14.769v-22.154h6.769
	c23.413,0,42.462-19.048,42.462-42.462v-6.154c0-10.575-3.895-20.252-10.313-27.692c6.419-7.441,10.313-17.118,10.313-27.692
	V222.154z M221.538,209.231h56c7.126,0,12.923,5.797,12.923,12.923v6.154c0,7.126-5.797,12.923-12.923,12.923h-56V209.231z
	 M290.462,289.846c0,7.126-5.797,12.923-12.923,12.923h-56v-32h56c7.126,0,12.923,5.797,12.923,12.923V289.846z"/>
<path style="fill:#9B5E34;" d="M277.538,209.231c7.126,0,12.923,5.797,12.923,12.923v6.154c0,7.126-5.797,12.923-12.923,12.923H256
	v29.538h21.538c7.126,0,12.923,5.797,12.923,12.923v6.154c0,7.126-5.797,12.923-12.923,12.923H256v66.462
	c8.157,0,14.769-6.613,14.769-14.769v-22.154h6.769c23.413,0,42.462-19.048,42.462-42.462v-6.154
	c0-10.575-3.895-20.252-10.313-27.692c6.419-7.441,10.313-17.118,10.313-27.692v-6.154c0-23.413-19.048-42.462-42.462-42.462h-6.769
	v-22.154c0-8.157-6.613-14.769-14.769-14.769v66.462H277.538z"/>
<g>
</g>
<g>
</g>
<g>
</g>
<g>
</g>
<g>
</g>
<g>
</g>
<g>
</g>
<g>
</g>
<g>
</g>
<g>
</g>
<g>
</g>
<g>
</g>
<g>
</g>
<g>
</g>
<g>
</g>
</svg>
